<?xml version="1.0" encoding="iso-8859-1"?>
<!-- Generator: Adobe Illustrator 19.0.0, SVG Export Plug-In . SVG Version: 6.00 Build 0)  -->
<svg version="1.1" id="Capa_1" xmlns="http://www.w3.org/2000/svg" xmlns:xlink="http://www.w3.org/1999/xlink" x="0px" y="0px"
	 viewBox="0 0 512 512" style="enable-background:new 0 0 512 512;" xml:space="preserve">
<path style="fill:#424242;" d="M453.023,255.415C453.023,133.702,424.895,0.585,256,0.585S58.977,133.702,58.977,255.415
	C58.977,377.13,0,402.536,0,511.415h73.756L256,434.53l182.244,76.885H512C512,402.536,453.023,377.13,453.023,255.415z"/>
<g style="opacity:0.1;">
	<path d="M271.453,0.973C266.438,0.716,261.288,0.586,256,0.586c-168.895,0-197.023,133.117-197.023,254.831
		C58.977,377.13,0,402.536,0,511.415h30.905c0-108.88,58.977-134.286,58.977-256C89.882,137.513,116.277,8.91,271.453,0.973z"/>
</g>
<path style="fill:#FFA001;" d="M169.005,221.976c0,0,4.296,33.441,86.995,33.441s86.995-33.441,86.995-33.441v-14.517
	l-81.419-22.684l-92.569,21.776v15.425H169.005z"/>
<path style="fill:#FFC108;" d="M377.905,192.033h-24.044c-71.68,0-47.181-59.884-97.861-59.884s-26.182,59.884-97.861,59.884
	h-24.044c-8.268,0-14.971,6.702-14.971,14.971s6.702,14.971,14.971,14.971h34.912c32.137,0,63.132-19.19,86.995,2.336l0,0l0,0
	c23.862-21.526,54.857-2.336,86.995-2.336h34.912c8.268,0,14.971-6.702,14.971-14.971
	C392.877,198.736,386.175,192.033,377.905,192.033z"/>
<circle style="fill:#E6E1D7;" cx="154.96" cy="132.605" r="35.84"/>
<circle style="fill:#212121;" cx="154.96" cy="132.605" r="16.786"/>
<circle style="fill:#E6E1D7;" cx="357.04" cy="132.605" r="35.84"/>
<circle style="fill:#212121;" cx="357.04" cy="132.605" r="16.786"/>
<path style="fill:#E6E1D7;" d="M438.244,511.415c0,0,13.61-114.324-36.293-169.672S324.181,330.081,256,330.081
	s-96.047-43.685-145.95,11.663S73.757,511.415,73.757,511.415H438.244z"/>
<g>
</g>
<g>
</g>
<g>
</g>
<g>
</g>
<g>
</g>
<g>
</g>
<g>
</g>
<g>
</g>
<g>
</g>
<g>
</g>
<g>
</g>
<g>
</g>
<g>
</g>
<g>
</g>
<g>
</g>
</svg>
